<?xml version="1.0" encoding="UTF-8"?>
<svg id="Layer_1" data-name="Layer 1" xmlns="http://www.w3.org/2000/svg" viewBox="0 0 274.96 85.04">
  <defs>
    <style>
      .cls-1 {
        fill: #2a347b;
      }
    </style>
  </defs>
  <g>
    <path class="cls-1" d="M102.9,59.72c-4.55,2.4-9.41,2.5-11.66,2.39V22.02c2.36-.11,7.43-.08,10.8,1.92,5.24,3.11,10.83,7.3,10.83,17.85,0,7.94-3.72,14.64-9.97,17.93M115.83,41.79c0-11.52-5.9-16.61-12.28-20.39-3.3-1.96-7.68-2.36-10.65-2.38l-.03-.05h-4.53v.35h-.06v45.41h.06v.42h4.53l.04-.06c2.87-.04,7.18-.55,11.37-2.76,7.23-3.81,11.55-11.49,11.55-20.55"/>
    <path class="cls-1" d="M137.02,63.02c-7.08,0-12.85-5.76-12.85-12.85s5.76-12.85,12.85-12.85,12.85,5.76,12.85,12.85-5.76,12.85-12.85,12.85M137.02,34.36c-8.72,0-15.81,7.09-15.81,15.81s7.09,15.81,15.81,15.81,15.81-7.09,15.81-15.81-7.09-15.81-15.81-15.81"/>
    <path class="cls-1" d="M244.98,63.02c-7.08,0-12.85-5.76-12.85-12.85s5.76-12.85,12.85-12.85,12.85,5.76,12.85,12.85-5.76,12.85-12.85,12.85M257.83,36.99v4c-2.87-4.01-7.55-6.63-12.85-6.63-8.72,0-15.81,7.09-15.81,15.81s7.09,15.81,15.81,15.81c5.29,0,9.98-2.62,12.85-6.63v5.57h2.96v-27.93h-2.96Z"/>
    <path class="cls-1" d="M190.95,65.03v-21.4c-.04-2.88-1.86-8.33-8.46-8.33-3.64,0-5.93,1.68-7.3,3.68-1.23-1.99-3.42-3.68-7.09-3.68-2.49,0-4.3.8-5.59,1.95v-.79h-2.96v28.56h3.05v-21.15c0-.23.15-5.62,5.5-5.62,4.46,0,5.3,3.53,5.45,4.89-.02.17-.05.34-.06.49v21.38h3.07v-21.4c0-.13-.01-.27-.02-.4.29-1.41,1.47-4.96,5.95-4.96,5.21,0,5.48,4.86,5.49,5.39v21.38h2.96Z"/>
    <path class="cls-1" d="M218.74,64.92h2.96v-18.69c0-.2.17-4.9-2.99-8.19-1.94-2.03-4.66-3.06-8.08-3.06-4.04,0-6.75,1.39-8.52,3.27v-1.68h-2.96v28.46h2.96v-19.27c0-.8.3-7.81,8.52-7.81,2.57,0,4.57.72,5.93,2.13,2.28,2.36,2.18,6,2.18,6.09v18.76Z"/>
  </g>
  <rect class="cls-1" x="66.8" y="14.31" width=".8" height="56.42"/>
  <path class="cls-1" d="M39.46,64.78s-.98,1.49-2.19,2.35c-1.21.86-2.65,1.39-3.58,1.39-4.5,0-6.17-7.32-6.17-16.44s1.66-17.64,5.85-17.64c.73,0,1.75.23,2.74.81,1.71.99,3.35,3.19,3.35,3.19v26.33ZM39.46,36.21c-2.64-2.34-5.88-3.74-9.4-3.74-8.77,0-15.88,8.56-15.88,19.12s7.11,19.12,15.88,19.12c3.52,0,6.77-1.4,9.4-3.74v2.96h12.96V14.31h-12.96v21.9Z"/>
</svg>